<svg width="273" height="672" viewBox="0 0 273 672" fill="none" xmlns="http://www.w3.org/2000/svg">
  <ellipse rx="38.8898" ry="38.8898" transform="matrix(-0.99029 -0.139014 -0.139137 0.990273 261.71 337.767)" fill="#74AA63"/>
  <path d="M253.811 393.989L289.399 365.279L227.688 356.616L253.811 393.989Z" fill="#74AA63"/>
  <ellipse rx="38.8898" ry="38.8898" transform="matrix(-0.99029 -0.139015 -0.139136 0.990273 272.899 258.121)" fill="#74AA63"/>
  <path d="M265 314.343L300.588 285.633L238.877 276.97L265 314.343Z" fill="#74AA63"/>
  <ellipse rx="38.8898" ry="38.8898" transform="matrix(-0.99029 -0.139014 -0.139137 0.990273 284.09 178.474)" fill="#74AA63"/>
  <path d="M276.19 234.696L311.778 205.986L250.067 197.323L276.19 234.696Z" fill="#74AA63"/>
  <path d="M285.33 167.931L244.144 461.608" stroke="#638A4E" stroke-width="2"/>
  <path d="M140.007 203.934L314.673 636.123" stroke="#638A4E" stroke-width="2"/>
  <path fill-rule="evenodd" clip-rule="evenodd" d="M94.4684 168.548C88.1713 173.644 83.4182 180.754 81.308 189.219C76.1476 209.92 88.7461 230.883 109.448 236.041C130.149 241.199 151.114 228.599 156.275 207.898C158.385 199.433 157.525 190.924 154.357 183.47L154.529 183.513L153.748 182.112C152.999 180.521 152.142 178.983 151.185 177.51L132.431 143.838L101.176 164.181C98.8008 165.4 96.5542 166.861 94.4757 168.542L94.4671 168.548L94.4684 168.548Z" fill="#FAE0BE"/>
  <path fill-rule="evenodd" clip-rule="evenodd" d="M123.184 186.33C126.085 193.893 131.378 200.61 138.778 205.231C156.872 216.534 180.705 211.029 192.009 192.936C203.314 174.843 197.81 151.013 179.716 139.711C172.317 135.089 163.958 133.278 155.889 133.988L155.983 133.838L154.409 134.147C152.664 134.368 150.937 134.708 149.239 135.163L111.416 142.595L121.104 178.602C121.529 181.238 122.225 183.826 123.181 186.322L123.184 186.331L123.184 186.33Z" fill="#FAE0BE"/>
  <path fill-rule="evenodd" clip-rule="evenodd" d="M148.976 164.511C157.065 164.09 165.09 161.131 171.772 155.523C188.115 141.809 190.244 117.444 176.528 101.103C162.812 84.7614 138.446 82.632 122.104 96.3465C115.421 101.955 111.115 109.344 109.297 117.237L109.183 117.101L108.991 118.693C108.662 120.421 108.451 122.168 108.36 123.923L103.74 162.188L140.983 164.101C143.62 164.512 146.297 164.65 148.966 164.512L148.977 164.512L148.976 164.511Z" fill="#FAE0BE"/>
  <path fill-rule="evenodd" clip-rule="evenodd" d="M136.195 133.253C138.294 125.43 137.96 116.884 134.691 108.796C126.697 89.0156 104.181 79.461 84.4014 87.455C64.6213 95.4489 55.0667 117.964 63.0607 137.744C66.3296 145.833 72.0267 152.211 78.972 156.379L78.8077 156.446L80.2626 157.121C81.8041 157.967 83.4012 158.708 85.0416 159.337L120.007 175.556L133.335 140.728C134.541 138.347 135.499 135.844 136.192 133.262L136.196 133.253L136.195 133.253Z" fill="#FAE0BE"/>
  <path fill-rule="evenodd" clip-rule="evenodd" d="M102.505 135.744C95.7134 131.33 87.4825 129.007 78.7798 129.617C57.4976 131.108 41.4525 149.57 42.942 170.852C44.4315 192.134 62.8916 208.178 84.1738 206.687C92.8766 206.077 100.704 202.63 106.814 197.312L106.826 197.489L107.918 196.314C109.199 195.109 110.397 193.819 111.503 192.454L137.733 164.21L108.73 140.773C106.838 138.891 104.754 137.206 102.513 135.749L102.505 135.742L102.505 135.744Z" fill="#FAE0BE"/>
  <path d="M115.375 137.271C114.189 134.916 110.623 136.357 111.405 138.875C112.046 140.937 109.587 142.55 107.951 141.14C105.954 139.419 103.21 142.115 104.897 144.142C106.278 145.801 104.623 148.232 102.573 147.556C100.069 146.73 98.5659 150.271 100.9 151.497C102.81 152.502 102.212 155.381 100.059 155.541C97.4297 155.737 97.3962 159.582 100.022 159.823C102.171 160.02 102.72 162.909 100.793 163.88C98.4381 165.067 99.8791 168.632 102.397 167.85C104.458 167.209 106.071 169.668 104.662 171.303C102.94 173.301 105.636 176.043 107.663 174.357C109.323 172.976 111.754 174.631 111.077 176.681C110.251 179.185 113.792 180.687 115.019 178.353C116.024 176.442 118.903 177.041 119.063 179.194C119.258 181.823 123.104 181.856 123.345 179.23C123.542 177.081 126.431 176.532 127.403 178.46C128.59 180.814 132.156 179.373 131.373 176.855C130.732 174.793 133.192 173.181 134.827 174.59C136.825 176.311 139.568 173.615 137.881 171.589C136.5 169.929 138.155 167.498 140.205 168.174C142.709 169 144.212 165.46 141.879 164.233C139.968 163.228 140.566 160.349 142.719 160.189C145.348 159.994 145.382 156.148 142.757 155.908C140.607 155.711 140.058 152.822 141.986 151.85C144.34 150.664 142.899 147.098 140.381 147.881C138.32 148.521 136.707 146.062 138.117 144.427C139.838 142.43 137.142 139.687 135.115 141.374C133.456 142.754 131.025 141.1 131.701 139.049C132.527 136.546 128.986 135.044 127.759 137.377C126.754 139.288 123.875 138.689 123.715 136.537C123.52 133.907 119.674 133.874 119.433 136.5C119.236 138.65 116.347 139.199 115.375 137.271Z" fill="#F4B442"/>
  <path d="M89.3259 145.29L127.99 161.694" stroke="#DC8433" stroke-width="2"/>
  <circle r="6" transform="matrix(-0.390698 0.920519 0.920568 0.390583 89.3259 145.29)" fill="#F4B442"/>
  <path d="M86.9533 158.516L128.952 158.877" stroke="#DC8433" stroke-width="2"/>
  <circle r="6" transform="matrix(-0.00867198 0.999962 0.999963 0.00858425 86.9525 158.517)" fill="#F4B442"/>
  <path d="M89.8224 171.644L128.763 155.907" stroke="#DC8433" stroke-width="2"/>
  <circle r="6" transform="matrix(0.374698 0.927147 0.927147 -0.374698 89.8224 171.644)" fill="#F4B442"/>
  <path d="M97.4978 182.673L127.453 153.234" stroke="#DC8433" stroke-width="2"/>
  <circle r="6" transform="matrix(0.701011 0.713151 0.713212 -0.700948 97.4974 182.674)" fill="#F4B442"/>
  <path d="M108.809 189.926L125.218 151.264" stroke="#DC8433" stroke-width="2"/>
  <circle r="6" transform="matrix(0.920568 0.390583 0.390698 -0.920519 108.81 189.926)" fill="#F4B442"/>
  <path d="M122.037 192.298L122.402 150.299" stroke="#DC8433" stroke-width="2"/>
  <circle r="6" transform="matrix(0.999963 0.00858415 0.00867201 -0.999962 122.037 192.298)" fill="#F4B442"/>
  <path d="M135.165 189.428L119.428 150.487" stroke="#DC8433" stroke-width="2"/>
  <circle r="6" transform="matrix(0.927147 -0.374698 -0.374698 -0.927147 135.165 189.428)" fill="#F4B442"/>
  <path d="M146.197 181.753L116.754 151.8" stroke="#DC8433" stroke-width="2"/>
  <circle r="6" transform="matrix(0.713212 -0.700948 -0.701011 -0.713151 146.196 181.753)" fill="#F4B442"/>
  <path d="M153.451 170.441L114.787 154.037" stroke="#DC8433" stroke-width="2"/>
  <circle r="6" transform="matrix(0.390698 -0.920519 -0.920568 -0.390583 153.451 170.441)" fill="#F4B442"/>
  <path d="M155.823 157.215L113.825 156.854" stroke="#DC8433" stroke-width="2"/>
  <circle r="6" transform="matrix(0.00867201 -0.999962 -0.999963 -0.00858404 155.825 157.214)" fill="#F4B442"/>
  <path d="M152.956 144.086L114.016 159.824" stroke="#DC8433" stroke-width="2"/>
  <circle r="6" transform="matrix(-0.374698 -0.927147 -0.927147 0.374698 152.956 144.086)" fill="#F4B442"/>
  <path d="M145.279 133.058L115.324 162.497" stroke="#DC8433" stroke-width="2"/>
  <circle r="6" transform="matrix(-0.701011 -0.713151 -0.713212 0.700948 145.279 133.057)" fill="#F4B442"/>
  <path d="M133.968 125.805L117.558 164.467" stroke="#DC8433" stroke-width="2"/>
  <circle r="6" transform="matrix(-0.920568 -0.390583 -0.390698 0.920519 133.967 125.805)" fill="#F4B442"/>
  <path d="M120.739 123.434L120.375 165.432" stroke="#DC8433" stroke-width="2"/>
  <circle r="6" transform="matrix(-0.999963 -0.00858402 -0.00867198 0.999962 120.739 123.434)" fill="#F4B442"/>
  <path d="M107.611 126.303L123.349 165.244" stroke="#DC8433" stroke-width="2"/>
  <circle r="6" transform="matrix(-0.927147 0.374698 0.374698 0.927147 107.611 126.304)" fill="#F4B442"/>
  <path d="M96.5816 133.978L126.024 163.93" stroke="#DC8433" stroke-width="2"/>
  <circle r="6" transform="matrix(-0.713212 0.700948 0.701011 0.713151 96.5824 133.977)" fill="#F4B442"/>
</svg>
