<svg width="283" height="620" viewBox="0 0 283 620" fill="none" xmlns="http://www.w3.org/2000/svg">
  <ellipse rx="32.1263" ry="32.1354" transform="matrix(-0.883158 -0.469076 0.469086 -0.883153 143.455 120.815)" fill="#74AA63"/>
  <path d="M165.462 79.3827L175.321 115.849L129.858 91.7024L165.462 79.3827Z" fill="#74AA63"/>
  <path d="M164.78 80.6532C150.723 94.0349 124.396 126.636 131.547 149.988" stroke="#638A4E" stroke-width="2"/>
  <path d="M111.258 121.425L136.82 204.902C144.909 231.319 165.557 251.579 195.665 242.359C233.273 230.843 216.8 235.887 220.693 234.695C246.645 226.748 256.428 238.771 264.64 265.588C280.818 318.422 320.173 446.941 355.765 563.175" stroke="#638A4E" stroke-width="2"/>
  <ellipse rx="32.1263" ry="32.1354" transform="matrix(0.469086 -0.883153 -0.883158 -0.469077 100.665 192.582)" fill="#74AA63"/>
  <path d="M59.232 170.576L71.4823 206.31L95.6298 160.848L59.232 170.576Z" fill="#74AA63"/>
  <path d="M60.5091 171.246C79.6486 174.463 119.715 186.734 126.866 210.085" stroke="#638A4E" stroke-width="2"/>
  <ellipse cx="101.263" cy="85.6918" rx="57.9025" ry="57.9025" transform="rotate(-17.0253 101.263 85.6918)" fill="#BD2A31"/>
  <path fill-rule="evenodd" clip-rule="evenodd" d="M73.0657 94.4924C88.3543 89.8108 96.953 73.6218 92.2714 58.3332C96.953 73.6218 113.142 82.2205 128.431 77.5389C113.142 82.2205 104.543 98.4095 109.225 113.698C104.543 98.4095 88.3543 89.8108 73.0657 94.4924Z" fill="#93141A"/>
  <path d="M101.435 86.3045C96.0246 70.9551 86.1907 37.9135 90.1364 28.5424" stroke="#93141A" stroke-width="2" stroke-linecap="round"/>
  <path d="M101.281 86.6699C116.253 81.2334 148.594 71.6709 158.184 76.9125" stroke="#93141A" stroke-width="2" stroke-linecap="round"/>
  <path d="M100.901 86.4679C106.338 101.44 115.9 133.78 110.659 143.371" stroke="#93141A" stroke-width="2" stroke-linecap="round"/>
  <path d="M101.103 86.0878C85.7934 91.6277 52.7359 101.41 42.9832 96.2178" stroke="#93141A" stroke-width="2" stroke-linecap="round"/>
</svg>
