<svg width="460" height="843" viewBox="0 0 460 843" fill="none" xmlns="http://www.w3.org/2000/svg">
  <path d="M83.0616 640.793L83.0616 527.632C83.0616 491.821 100.971 458.876 141.804 458.876C192.81 458.876 375.401 458.876 387.579 458.876C430.561 458.876 458.5 445.268 458.5 387.971C458.5 316.349 458.5 158.067 458.5 0.499931" stroke="#638A4E" stroke-width="2"/>
  <ellipse rx="56.3027" ry="75.0702" transform="matrix(0.707271 -0.706942 0.707272 0.706942 232.294 371.303)" fill="#3C652F"/>
  <path d="M192.173 328.856L376.373 512.969" stroke="#74AA63" stroke-width="2"/>
  <path fill-rule="evenodd" clip-rule="evenodd" d="M64.333 792.34C60.7707 797.499 58.6844 803.756 58.6844 810.5C58.6844 828.173 73.0113 842.5 90.6844 842.5C108.358 842.5 122.684 828.173 122.684 810.5C122.684 803.757 120.599 797.5 117.037 792.341C105.282 770.858 94.4178 726.5 94.4178 726.5L86.9511 726.5C86.9511 726.5 76.0873 770.856 64.333 792.34Z" fill="#EB5A35"/>
  <path fill-rule="evenodd" clip-rule="evenodd" d="M-7.5432 747.079C-13.7118 748.208 -19.6126 751.156 -24.3825 755.924C-36.8822 768.417 -36.8822 788.674 -24.3825 801.168C-11.8828 813.662 8.38318 813.662 20.8829 801.168C25.6523 796.401 28.6019 790.503 29.7316 784.338C36.6127 760.841 60.3015 721.802 60.3015 721.802L55.0206 716.523C55.0206 716.523 15.9653 740.2 -7.5432 747.079Z" fill="#EB5A35"/>
  <path fill-rule="evenodd" clip-rule="evenodd" d="M-26.3396 664.26C-31.4989 660.698 -37.7557 658.612 -44.4998 658.612C-62.1729 658.612 -76.4998 672.939 -76.4998 690.612C-76.4998 708.285 -62.1729 722.612 -44.4998 722.612C-37.7563 722.612 -31.5001 720.526 -26.341 716.964C-4.85749 705.21 39.5001 694.345 39.5001 694.345L39.5002 686.879C39.5002 686.879 -4.85548 676.015 -26.3396 664.26Z" fill="#EB5A35"/>
  <path fill-rule="evenodd" clip-rule="evenodd" d="M18.9661 592.45C17.8366 586.284 14.8869 580.386 10.117 575.618C-2.38264 563.124 -22.6486 563.124 -35.1483 575.618C-47.648 588.112 -47.648 608.369 -35.1483 620.862C-30.3789 625.63 -24.4787 628.578 -18.3108 629.707C5.19755 636.585 44.2546 660.263 44.2546 660.263L49.5356 654.984C49.5356 654.984 25.8478 615.947 18.9661 592.45Z" fill="#EB5A35"/>
  <path fill-rule="evenodd" clip-rule="evenodd" d="M101.79 573.684C105.352 568.525 107.439 562.268 107.439 555.524C107.439 537.851 93.1118 523.524 75.4387 523.524C57.7656 523.524 43.4387 537.851 43.4387 555.524C43.4387 562.267 45.5246 568.523 49.0863 573.682C60.8408 595.166 71.7053 639.524 71.7053 639.524L79.172 639.524C79.172 639.524 90.0359 595.168 101.79 573.684Z" fill="#EB5A35"/>
  <path fill-rule="evenodd" clip-rule="evenodd" d="M173.666 618.945C179.835 617.816 185.735 614.868 190.505 610.1C203.005 597.606 203.005 577.35 190.505 564.856C178.006 552.362 157.74 552.362 145.24 564.856C140.471 569.623 137.521 575.52 136.391 581.685C129.51 605.183 105.821 644.222 105.821 644.222L111.102 649.5C111.102 649.5 150.158 625.823 173.666 618.945Z" fill="#EB5A35"/>
  <path fill-rule="evenodd" clip-rule="evenodd" d="M192.462 701.763C197.622 705.326 203.879 707.412 210.623 707.412C228.296 707.412 242.623 693.085 242.623 675.412C242.623 657.739 228.296 643.412 210.623 643.412C203.879 643.412 197.623 645.498 192.464 649.059C170.98 660.814 126.623 671.678 126.623 671.678L126.623 679.145C126.623 679.145 170.978 690.009 192.462 701.763Z" fill="#EB5A35"/>
  <path fill-rule="evenodd" clip-rule="evenodd" d="M147.157 773.576C148.287 779.742 151.236 785.64 156.006 790.408C168.506 802.902 188.772 802.902 201.271 790.408C213.771 777.914 213.771 757.657 201.271 745.163C196.502 740.396 190.602 737.448 184.434 736.319C160.926 729.441 121.869 705.763 121.869 705.763L116.588 711.042C116.588 711.042 140.275 750.079 147.157 773.576Z" fill="#EB5A35"/>
  <path d="M118.096 680.469C121.216 680.727 121.216 685.294 118.096 685.553L111.267 686.119C108.713 686.33 108.032 689.756 110.311 690.929L116.404 694.064C119.187 695.496 117.441 699.716 114.459 698.761L107.929 696.67C105.487 695.889 103.548 698.793 105.205 700.748L109.637 705.98C111.661 708.368 108.433 711.598 106.043 709.575L100.805 705.141C98.8483 703.485 95.9456 705.426 96.7277 707.867L98.8218 714.402C99.7771 717.383 95.5587 719.131 94.1253 716.348L90.9807 710.243C89.8072 707.965 86.3832 708.646 86.1713 711.2L85.6035 718.044C85.3446 721.163 80.7784 721.163 80.5196 718.044L79.9518 711.2C79.7399 708.646 76.3159 707.965 75.1423 710.243L71.9978 716.348C70.5644 719.131 66.346 717.383 67.3012 714.402L69.3954 707.867C70.1775 705.426 67.2748 703.485 65.3185 705.141L60.08 709.575C57.6906 711.598 54.4624 708.368 56.486 705.98L60.9182 700.748C62.5751 698.793 60.6357 695.889 58.1944 696.67L51.664 698.761C48.6824 699.716 46.9356 695.496 49.7192 694.064L55.812 690.929C58.0914 689.756 57.4103 686.33 54.8556 686.119L48.0267 685.553C44.9068 685.294 44.9068 680.727 48.0267 680.469L54.8556 679.903C57.4103 679.691 58.0914 676.266 55.812 675.093L49.7192 671.958C46.9356 670.525 48.6824 666.306 51.664 667.26L58.1944 669.351C60.6357 670.133 62.5751 667.229 60.9182 665.273L56.486 660.042C54.4624 657.653 57.6906 654.424 60.08 656.446L65.3185 660.88C67.2748 662.536 70.1775 660.596 69.3954 658.155L67.3012 651.62C66.346 648.638 70.5644 646.89 71.9978 649.673L75.1423 655.779C76.3159 658.057 79.7399 657.376 79.9518 654.822L80.5196 647.978C80.7784 644.858 85.3446 644.858 85.6035 647.978L86.1713 654.821C86.3832 657.376 89.8072 658.057 90.9807 655.779L94.1253 649.673C95.5587 646.89 99.7771 648.638 98.8218 651.62L96.7277 658.155C95.9456 660.596 98.8483 662.536 100.805 660.88L106.043 656.446C108.433 654.424 111.661 657.653 109.637 660.042L105.205 665.273C103.548 667.229 105.487 670.133 107.929 669.351L114.459 667.26C117.441 666.306 119.188 670.525 116.404 671.958L110.311 675.093C108.032 676.266 108.713 679.691 111.267 679.903L118.096 680.469Z" fill="#F4B442"/>
  <path d="M119.373 717.839L89.6678 688.147" stroke="#DC8433" stroke-width="2"/>
  <circle r="6" transform="matrix(-0.707271 0.706942 -0.707271 -0.706942 119.373 717.839)" fill="#F4B442"/>
  <path d="M103.276 729.075L87.1965 690.275" stroke="#DC8433" stroke-width="2"/>
  <circle r="6" transform="matrix(-0.923942 0.382532 -0.382836 -0.923817 103.276 729.076)" fill="#F4B442"/>
  <path d="M84.101 733.3L84.101 691.3" stroke="#DC8433" stroke-width="2"/>
  <circle cx="84.101" cy="733.3" r="6" transform="rotate(180 84.101 733.3)" fill="#F4B442"/>
  <path d="M64.7674 729.87L80.8465 691.07" stroke="#DC8433" stroke-width="2"/>
  <circle r="6" transform="matrix(-0.923943 -0.382531 0.382835 -0.923817 64.7674 729.87)" fill="#F4B442"/>
  <path d="M48.2179 719.306L77.9233 689.615" stroke="#DC8433" stroke-width="2"/>
  <circle r="6" transform="matrix(-0.707271 -0.706942 0.707271 -0.706942 48.2179 719.305)" fill="#F4B442"/>
  <path d="M36.973 703.214L75.7786 687.148" stroke="#DC8433" stroke-width="2"/>
  <circle r="6" transform="matrix(-0.382835 -0.923817 0.923942 -0.382532 36.973 703.214)" fill="#F4B442"/>
  <path d="M32.7457 684.047L74.7457 684.047" stroke="#DC8433" stroke-width="2"/>
  <circle cx="32.7457" cy="684.047" r="6" transform="rotate(-90 32.7457 684.047)" fill="#F4B442"/>
  <path d="M36.1793 664.723L74.9849 680.789" stroke="#DC8433" stroke-width="2"/>
  <circle r="6" transform="matrix(0.382835 -0.923817 0.923943 0.382531 36.1793 664.724)" fill="#F4B442"/>
  <path d="M46.7498 648.185L76.4552 677.876" stroke="#DC8433" stroke-width="2"/>
  <circle r="6" transform="matrix(0.707271 -0.706942 0.707271 0.706942 46.7498 648.185)" fill="#F4B442"/>
  <path d="M62.8474 636.949L78.9265 675.749" stroke="#DC8433" stroke-width="2"/>
  <circle r="6" transform="matrix(0.923942 -0.382532 0.382835 0.923817 62.8474 636.947)" fill="#F4B442"/>
  <path d="M82.022 632.721L82.022 674.721" stroke="#DC8433" stroke-width="2"/>
  <circle cx="82.022" cy="632.721" r="6" fill="#F4B442"/>
  <path d="M101.356 636.154L85.2766 674.954" stroke="#DC8433" stroke-width="2"/>
  <circle r="6" transform="matrix(0.923942 0.382531 -0.382835 0.923817 101.356 636.154)" fill="#F4B442"/>
  <path d="M117.905 646.718L88.1997 676.409" stroke="#DC8433" stroke-width="2"/>
  <circle r="6" transform="matrix(0.707271 0.706942 -0.707271 0.706942 117.905 646.718)" fill="#F4B442"/>
  <path d="M129.15 662.81L90.3444 678.876" stroke="#DC8433" stroke-width="2"/>
  <circle r="6" transform="matrix(0.382835 0.923817 -0.923942 0.382531 129.15 662.81)" fill="#F4B442"/>
  <path d="M133.377 681.977H91.3773" stroke="#DC8433" stroke-width="2"/>
  <circle cx="133.377" cy="681.977" r="6" transform="rotate(90 133.377 681.977)" fill="#F4B442"/>
  <path d="M129.944 701.298L91.1382 685.232" stroke="#DC8433" stroke-width="2"/>
  <circle r="6" transform="matrix(-0.382835 0.923817 -0.923943 -0.382531 129.944 701.298)" fill="#F4B442"/>
</svg>
