<svg width="32" height="32" viewBox="0 0 32 32" fill="none" xmlns="http://www.w3.org/2000/svg">
  <path fill-rule="evenodd" clip-rule="evenodd" d="M16.0002 0.990479C11.9238 0.990479 11.4128 1.00776 9.81187 1.08078C8.21419 1.15366 7.12301 1.40741 6.16865 1.77847C5.1817 2.16199 4.34459 2.67521 3.50992 3.50962C2.67565 4.34412 2.16223 5.18115 1.77869 6.16815C1.40777 7.12284 1.15411 8.21392 1.08123 9.8115C1.00794 11.4124 0.990845 11.9235 0.990845 15.9999C0.990845 20.0762 1.00794 20.5872 1.08123 22.1882C1.15411 23.7857 1.40777 24.8769 1.77869 25.8315C2.16223 26.8186 2.67565 27.6556 3.50992 28.4902C4.34459 29.3245 5.1817 29.8377 6.16865 30.2212C7.12301 30.5923 8.21419 30.846 9.81187 30.9188C11.4128 30.9919 11.9238 31.0092 16.0002 31.0092C20.0766 31.0092 20.5876 30.9919 22.1886 30.9188C23.7863 30.846 24.8771 30.5923 25.8319 30.2212C26.8188 29.8377 27.6558 29.3245 28.4905 28.4902C29.3247 27.6556 29.8382 26.8186 30.2218 25.8315C30.5927 24.8769 30.8463 23.7857 30.9192 22.1882C30.9921 20.5872 31.0096 20.0762 31.0096 15.9999C31.0096 11.9235 30.9921 11.4124 30.9192 9.8115C30.8463 8.21392 30.5927 7.12284 30.2218 6.16815C29.8382 5.18115 29.3247 4.34412 28.4905 3.50962C27.6558 2.67521 26.8188 2.16199 25.8319 1.77847C24.8771 1.40741 23.7863 1.15366 22.1886 1.08078C20.5876 1.00776 20.0766 0.990479 16.0002 0.990479ZM16.0004 3.69495C20.0081 3.69495 20.4827 3.71028 22.0654 3.78247C23.5288 3.84922 24.3235 4.09372 24.8525 4.29928C25.5531 4.57157 26.0531 4.8968 26.5784 5.42206C27.1036 5.94726 27.4289 6.44725 27.7009 7.14784C27.9066 7.67674 28.1512 8.47147 28.2179 9.93487C28.29 11.5176 28.3055 11.9923 28.3055 16C28.3055 20.0076 28.29 20.4823 28.2179 22.0651C28.1512 23.5283 27.9066 24.3232 27.7009 24.852C27.4289 25.5526 27.1036 26.0526 26.5784 26.5777C26.0531 27.1031 25.5531 27.4283 24.8525 27.7006C24.3235 27.9062 23.5288 28.1507 22.0654 28.2174C20.4827 28.2896 20.0085 28.305 16.0004 28.305C11.9924 28.305 11.5177 28.2896 9.93546 28.2174C8.47175 28.1507 7.67697 27.9062 7.14849 27.7006C6.44777 27.4283 5.94779 27.1031 5.42256 26.5777C4.89733 26.0526 4.57201 25.5526 4.29962 24.852C4.09401 24.3232 3.84971 23.5283 3.78293 22.0651C3.71087 20.4823 3.6954 20.0076 3.6954 16C3.6954 11.9923 3.71087 11.5176 3.78293 9.93487C3.84971 8.47147 4.09401 7.67674 4.29962 7.14784C4.57201 6.44725 4.89733 5.94726 5.42256 5.42206C5.94779 4.8968 6.44777 4.57157 7.14849 4.29928C7.67697 4.09372 8.47175 3.84922 9.93546 3.78247C11.5181 3.71028 11.9928 3.69495 16.0004 3.69495ZM16 8.29242C11.7432 8.29242 8.29256 11.7432 8.29256 15.9999C8.29256 20.2567 11.7432 23.7074 16 23.7074C20.2568 23.7074 23.7075 20.2567 23.7075 15.9999C23.7075 11.7432 20.2568 8.29242 16 8.29242ZM16.0002 21.0031C13.2368 21.0031 10.997 18.7632 10.997 16C10.997 13.2368 13.2368 10.9969 16.0002 10.9969C18.7631 10.9969 21.0033 13.2368 21.0033 16C21.0033 18.7632 18.7631 21.0031 16.0002 21.0031ZM25.8137 7.98787C25.8137 8.98262 25.0075 9.78898 24.0128 9.78898C23.0181 9.78898 22.2116 8.98262 22.2116 7.98787C22.2116 6.99315 23.0181 6.18671 24.0128 6.18671C25.0075 6.18671 25.8137 6.99315 25.8137 7.98787Z" fill="white"/>
</svg>
