<svg width="68" height="68" viewBox="0 0 68 68" fill="none" xmlns="http://www.w3.org/2000/svg">
  <path fill-rule="evenodd" clip-rule="evenodd" d="M33.9905 0.645996C15.6029 0.645996 0.645996 15.6068 0.645996 33.9995C0.645996 41.2934 2.99843 48.0586 6.99723 53.549L2.84127 65.9415L15.6615 61.8446C20.9345 65.3351 27.2271 67.3543 34.0098 67.3543C52.3973 67.3543 67.3543 52.392 67.3543 34.0008C67.3543 15.6083 52.3973 0.645996 34.0098 0.645996H33.9905ZM24.6789 17.5877C24.0322 16.0384 23.542 15.9813 22.5622 15.94C22.2286 15.921 21.8568 15.9019 21.4446 15.9019C20.17 15.9019 18.8372 16.275 18.0334 17.0972L17.9479 17.1845C16.9194 18.229 14.6226 20.564 14.6226 25.2149C14.6226 29.8592 17.908 34.3528 18.5325 35.207L18.5327 35.2072L18.5821 35.2756L18.7852 35.5644C20.0244 37.3612 26.1091 46.182 35.1861 49.9427C42.8509 53.119 45.125 52.8235 46.8694 52.4523C49.4176 51.9029 52.6133 50.0204 53.4171 47.7457C54.221 45.4709 54.221 43.5297 53.9852 43.1185C53.7977 42.7899 53.3488 42.5741 52.6777 42.2519L52.123 41.9804C51.1434 41.4901 46.3794 39.1376 45.4775 38.8231C44.595 38.4899 43.7524 38.609 43.0864 39.5502L42.6728 40.1296L42.662 40.1446C41.8711 41.2536 41.1116 42.3184 40.4791 43.001C39.891 43.6281 38.9298 43.7058 38.1266 43.3726L37.8211 43.2472L37.8187 43.2463C36.5425 42.7298 33.7208 41.588 30.3047 38.5486C27.4229 35.9803 25.4628 32.785 24.8947 31.8247C24.3366 30.8628 24.8172 30.2975 25.2609 29.7755L25.2609 29.7755L25.2864 29.7451C25.5654 29.3992 25.8378 29.1104 26.1113 28.8215L26.1278 28.8041C26.3293 28.5907 26.5314 28.3767 26.7369 28.1371L26.8385 28.0197L26.8445 28.0128C27.2689 27.5216 27.5253 27.2248 27.8152 26.6086C28.1487 25.961 27.9132 25.2943 27.6781 24.8038C27.5076 24.4485 26.4316 21.8379 25.546 19.6893L25.4734 19.5131L24.6789 17.5877Z" fill="#54433A"/>
</svg>
