<svg width="34" height="24" viewBox="0 0 34 24" fill="none" xmlns="http://www.w3.org/2000/svg">
  <path fill-rule="evenodd" clip-rule="evenodd" d="M32.0176 2.06791C33.0172 3.07519 33.3434 5.36257 33.3434 5.36257C33.3434 5.36257 33.677 8.04933 33.677 10.735V13.2537C33.677 15.9406 33.3434 18.6263 33.3434 18.6263C33.3434 18.6263 33.0172 20.9137 32.0176 21.921C30.8748 23.1127 29.6075 23.2357 28.8913 23.3052C28.8126 23.3129 28.7405 23.3198 28.676 23.3275C24.0084 23.6638 16.9999 23.6741 16.9999 23.6741C16.9999 23.6741 8.32782 23.5952 5.65948 23.34C5.53308 23.3166 5.37986 23.2983 5.20634 23.2776C4.36113 23.1767 3.03445 23.0184 1.98113 21.921C0.98156 20.9137 0.656357 18.6263 0.656357 18.6263C0.656357 18.6263 0.322815 15.9406 0.322815 13.2537V10.735C0.322815 8.04933 0.656357 5.36257 0.656357 5.36257C0.656357 5.36257 0.98156 3.07519 1.98113 2.06791C3.12649 0.874644 4.39488 0.752859 5.11119 0.684082C5.18886 0.676625 5.26003 0.669791 5.32386 0.662282C9.99135 0.326172 16.9926 0.326172 16.9926 0.326172H17.0072C17.0072 0.326172 24.0084 0.326172 28.676 0.662282C28.7398 0.669802 28.8111 0.676646 28.8888 0.684116C29.6045 0.7529 30.8734 0.874843 32.0176 2.06791ZM13.5554 6.978L13.5564 16.305L22.5673 11.6576L13.5554 6.978Z" fill="white"/>
</svg>
